<svg xmlns="http://www.w3.org/2000/svg" xmlns:xlink="http://www.w3.org/1999/xlink" width="500" zoomAndPan="magnify" viewBox="0 0 375 374.999991" height="500" preserveAspectRatio="xMidYMid meet" version="1.0"><defs><g/><clipPath id="3c0eac8fb3"><path d="M 134 112 L 240.976562 112 L 240.976562 215 L 134 215 Z M 134 112 " clip-rule="nonzero"/></clipPath></defs><rect x="-37.5" width="450" fill="#ffffff" y="-37.499999" height="449.999989" fill-opacity="1"/><rect x="-37.5" width="450" fill="#ffffff" y="-37.499999" height="449.999989" fill-opacity="1"/><path fill="#6133bd" d="M 164.632812 106.628906 C 166.613281 106.628906 168.222656 105.023438 168.222656 103.042969 L 168.222656 96.089844 C 168.222656 87.101562 175.542969 79.78125 184.558594 79.78125 C 193.578125 79.78125 200.898438 87.101562 200.898438 96.089844 L 200.898438 103.042969 C 200.898438 105.023438 202.507812 106.628906 204.488281 106.628906 C 206.472656 106.628906 208.078125 105.023438 208.078125 103.042969 L 208.078125 97.066406 C 208.078125 84.519531 198.660156 73.492188 186.109375 72.660156 C 172.472656 71.769531 161.042969 82.625 161.042969 96.089844 L 161.042969 103.042969 C 161.042969 105.023438 162.648438 106.628906 164.632812 106.628906 Z M 164.632812 106.628906 " fill-opacity="1" fill-rule="nonzero"/><g clip-path="url(#3c0eac8fb3)"><path fill="#6133bd" d="M 240.128906 199.960938 L 232.230469 123.144531 C 231.597656 117.027344 226.457031 112.402344 220.3125 112.402344 L 148.808594 112.402344 C 142.664062 112.402344 137.523438 117.054688 136.890625 123.144531 L 134.910156 142.269531 C 133.589844 155.105469 145.792969 165.125 158.113281 161.363281 L 164.804688 159.324219 C 172.414062 157 180.914062 160.847656 183.898438 169.289062 C 184.933594 172.21875 184.789062 175.4375 183.871094 178.421875 L 180.914062 188.070312 C 176.835938 201.394531 186.800781 214.863281 200.726562 214.863281 L 226.6875 214.863281 C 234.699219 214.835938 240.960938 207.914062 240.128906 199.960938 Z M 240.128906 199.960938 " fill-opacity="1" fill-rule="nonzero"/></g><path fill="#6133bd" d="M 167.332031 167.539062 L 128.648438 179.339844 C 123.019531 181.0625 122.617188 188.875 128.046875 191.171875 L 137.265625 195.050781 C 142.144531 197.117188 146.050781 200.992188 148.117188 205.902344 L 151.996094 215.121094 C 154.292969 220.550781 162.105469 220.148438 163.828125 214.519531 L 175.628906 175.835938 C 177.210938 170.753906 172.441406 165.988281 167.332031 167.539062 Z M 167.332031 167.539062 " fill-opacity="1" fill-rule="nonzero"/><g fill="#ef8121" fill-opacity="0.4"><g transform="translate(54.456428, 275.5276)"><g><path d="M 2.109375 0 L 2.109375 -47.75 L 16.671875 -47.75 L 20.6875 -18.625 L 24.6875 -47.75 L 39.359375 -47.75 L 39.359375 0 L 30.625 0 L 30.625 -34.40625 L 25.125 0 L 16.5625 0 L 10.734375 -34.40625 L 10.734375 0 Z M 2.109375 0 "/></g></g></g><g fill="#ef8121" fill-opacity="0.4"><g transform="translate(95.92059, 275.5276)"><g><path d="M 9.34375 0.4375 C 6.1875 0.4375 4.023438 -0.609375 2.859375 -2.703125 C 1.691406 -4.796875 1.109375 -7.785156 1.109375 -11.671875 C 1.109375 -14.859375 1.523438 -17.304688 2.359375 -19.015625 C 3.191406 -20.722656 4.347656 -21.972656 5.828125 -22.765625 C 7.316406 -23.554688 9.582031 -24.4375 12.625 -25.40625 L 15.28125 -26.296875 L 15.28125 -30.46875 C 15.28125 -31.539062 15.066406 -32.363281 14.640625 -32.9375 C 14.222656 -33.507812 13.71875 -33.796875 13.125 -33.796875 C 12.601562 -33.796875 12.144531 -33.554688 11.75 -33.078125 C 11.363281 -32.597656 11.171875 -31.945312 11.171875 -31.125 L 11.171875 -28.6875 L 1.71875 -28.6875 L 1.71875 -30.015625 C 1.71875 -34.023438 2.65625 -36.878906 4.53125 -38.578125 C 6.40625 -40.285156 9.453125 -41.140625 13.671875 -41.140625 C 17.046875 -41.140625 19.789062 -40.257812 21.90625 -38.5 C 24.019531 -36.738281 25.078125 -34.242188 25.078125 -31.015625 L 25.078125 0 L 15.40625 0 L 15.40625 -4.84375 C 14.914062 -3.164062 14.144531 -1.863281 13.09375 -0.9375 C 12.039062 -0.0195312 10.789062 0.4375 9.34375 0.4375 Z M 13.171875 -7.109375 C 13.910156 -7.109375 14.4375 -7.414062 14.75 -8.03125 C 15.070312 -8.644531 15.234375 -9.394531 15.234375 -10.28125 L 15.234375 -21.625 C 13.785156 -21.070312 12.71875 -20.367188 12.03125 -19.515625 C 11.34375 -18.660156 11 -17.472656 11 -15.953125 L 11 -10.734375 C 11 -8.316406 11.722656 -7.109375 13.171875 -7.109375 Z M 13.171875 -7.109375 "/></g></g></g><g fill="#ef8121" fill-opacity="0.4"><g transform="translate(122.766688, 275.5276)"><g><path d="M 1.953125 0 L 1.953125 -48.03125 L 11.5625 -48.03125 L 11.5625 -26.6875 L 16.234375 -40.6875 L 26.296875 -40.6875 L 20.1875 -23.015625 L 27.96875 0 L 17.625 0 L 11.5625 -19.1875 L 11.5625 0 Z M 1.953125 0 "/></g></g></g><g fill="#ef8121" fill-opacity="0.4"><g transform="translate(150.057446, 275.5276)"><g><path d="M 13.34375 0.4375 C 9.15625 0.4375 6.148438 -0.707031 4.328125 -3 C 2.515625 -5.300781 1.609375 -8.726562 1.609375 -13.28125 L 1.609375 -29.625 C 1.609375 -33.375 2.679688 -36.226562 4.828125 -38.1875 C 6.984375 -40.15625 9.988281 -41.140625 13.84375 -41.140625 C 21.664062 -41.140625 25.578125 -37.300781 25.578125 -29.625 L 25.578125 -26.6875 C 25.578125 -23.71875 25.539062 -21.304688 25.46875 -19.453125 L 11.34375 -19.453125 L 11.34375 -11.5625 C 11.34375 -10.15625 11.488281 -9.050781 11.78125 -8.25 C 12.082031 -7.457031 12.710938 -7.0625 13.671875 -7.0625 C 14.410156 -7.0625 14.9375 -7.28125 15.25 -7.71875 C 15.570312 -8.164062 15.757812 -8.675781 15.8125 -9.25 C 15.875 -9.832031 15.90625 -10.675781 15.90625 -11.78125 L 15.90625 -15.734375 L 25.578125 -15.734375 L 25.578125 -13.390625 C 25.578125 -8.648438 24.65625 -5.160156 22.8125 -2.921875 C 20.976562 -0.679688 17.820312 0.4375 13.34375 0.4375 Z M 15.90625 -24.296875 L 15.90625 -29.515625 C 15.90625 -32.441406 15.179688 -33.90625 13.734375 -33.90625 C 12.097656 -33.90625 11.28125 -32.441406 11.28125 -29.515625 L 11.28125 -24.296875 Z M 15.90625 -24.296875 "/></g></g></g><g fill="#ef8121" fill-opacity="0.4"><g transform="translate(177.181453, 275.5276)"><g><path d="M 1.953125 -40.6875 L 11.671875 -40.6875 L 11.671875 -36.1875 C 12.148438 -37.78125 12.992188 -39.007812 14.203125 -39.875 C 15.410156 -40.75 16.898438 -41.1875 18.671875 -41.1875 L 18.671875 -33.078125 C 17.304688 -33.078125 15.796875 -32.878906 14.140625 -32.484375 C 12.492188 -32.097656 11.671875 -31.644531 11.671875 -31.125 L 11.671875 0 L 1.953125 0 Z M 1.953125 -40.6875 "/></g></g></g><g fill="#6133bd" fill-opacity="1"><g transform="translate(54.456428, 275.5276)"><g><path d="M 2.109375 0 L 2.109375 -47.75 L 16.671875 -47.75 L 20.6875 -18.625 L 24.6875 -47.75 L 39.359375 -47.75 L 39.359375 0 L 30.625 0 L 30.625 -34.40625 L 25.125 0 L 16.5625 0 L 10.734375 -34.40625 L 10.734375 0 Z M 2.109375 0 "/></g></g></g><g fill="#6133bd" fill-opacity="1"><g transform="translate(95.92059, 275.5276)"><g><path d="M 9.34375 0.4375 C 6.1875 0.4375 4.023438 -0.609375 2.859375 -2.703125 C 1.691406 -4.796875 1.109375 -7.785156 1.109375 -11.671875 C 1.109375 -14.859375 1.523438 -17.304688 2.359375 -19.015625 C 3.191406 -20.722656 4.347656 -21.972656 5.828125 -22.765625 C 7.316406 -23.554688 9.582031 -24.4375 12.625 -25.40625 L 15.28125 -26.296875 L 15.28125 -30.46875 C 15.28125 -31.539062 15.066406 -32.363281 14.640625 -32.9375 C 14.222656 -33.507812 13.71875 -33.796875 13.125 -33.796875 C 12.601562 -33.796875 12.144531 -33.554688 11.75 -33.078125 C 11.363281 -32.597656 11.171875 -31.945312 11.171875 -31.125 L 11.171875 -28.6875 L 1.71875 -28.6875 L 1.71875 -30.015625 C 1.71875 -34.023438 2.65625 -36.878906 4.53125 -38.578125 C 6.40625 -40.285156 9.453125 -41.140625 13.671875 -41.140625 C 17.046875 -41.140625 19.789062 -40.257812 21.90625 -38.5 C 24.019531 -36.738281 25.078125 -34.242188 25.078125 -31.015625 L 25.078125 0 L 15.40625 0 L 15.40625 -4.84375 C 14.914062 -3.164062 14.144531 -1.863281 13.09375 -0.9375 C 12.039062 -0.0195312 10.789062 0.4375 9.34375 0.4375 Z M 13.171875 -7.109375 C 13.910156 -7.109375 14.4375 -7.414062 14.75 -8.03125 C 15.070312 -8.644531 15.234375 -9.394531 15.234375 -10.28125 L 15.234375 -21.625 C 13.785156 -21.070312 12.71875 -20.367188 12.03125 -19.515625 C 11.34375 -18.660156 11 -17.472656 11 -15.953125 L 11 -10.734375 C 11 -8.316406 11.722656 -7.109375 13.171875 -7.109375 Z M 13.171875 -7.109375 "/></g></g></g><g fill="#6133bd" fill-opacity="1"><g transform="translate(122.766688, 275.5276)"><g><path d="M 1.953125 0 L 1.953125 -48.03125 L 11.5625 -48.03125 L 11.5625 -26.6875 L 16.234375 -40.6875 L 26.296875 -40.6875 L 20.1875 -23.015625 L 27.96875 0 L 17.625 0 L 11.5625 -19.1875 L 11.5625 0 Z M 1.953125 0 "/></g></g></g><g fill="#6133bd" fill-opacity="1"><g transform="translate(150.057446, 275.5276)"><g><path d="M 13.34375 0.4375 C 9.15625 0.4375 6.148438 -0.707031 4.328125 -3 C 2.515625 -5.300781 1.609375 -8.726562 1.609375 -13.28125 L 1.609375 -29.625 C 1.609375 -33.375 2.679688 -36.226562 4.828125 -38.1875 C 6.984375 -40.15625 9.988281 -41.140625 13.84375 -41.140625 C 21.664062 -41.140625 25.578125 -37.300781 25.578125 -29.625 L 25.578125 -26.6875 C 25.578125 -23.71875 25.539062 -21.304688 25.46875 -19.453125 L 11.34375 -19.453125 L 11.34375 -11.5625 C 11.34375 -10.15625 11.488281 -9.050781 11.78125 -8.25 C 12.082031 -7.457031 12.710938 -7.0625 13.671875 -7.0625 C 14.410156 -7.0625 14.9375 -7.28125 15.25 -7.71875 C 15.570312 -8.164062 15.757812 -8.675781 15.8125 -9.25 C 15.875 -9.832031 15.90625 -10.675781 15.90625 -11.78125 L 15.90625 -15.734375 L 25.578125 -15.734375 L 25.578125 -13.390625 C 25.578125 -8.648438 24.65625 -5.160156 22.8125 -2.921875 C 20.976562 -0.679688 17.820312 0.4375 13.34375 0.4375 Z M 15.90625 -24.296875 L 15.90625 -29.515625 C 15.90625 -32.441406 15.179688 -33.90625 13.734375 -33.90625 C 12.097656 -33.90625 11.28125 -32.441406 11.28125 -29.515625 L 11.28125 -24.296875 Z M 15.90625 -24.296875 "/></g></g></g><g fill="#6133bd" fill-opacity="1"><g transform="translate(177.181453, 275.5276)"><g><path d="M 1.953125 -40.6875 L 11.671875 -40.6875 L 11.671875 -36.1875 C 12.148438 -37.78125 12.992188 -39.007812 14.203125 -39.875 C 15.410156 -40.75 16.898438 -41.1875 18.671875 -41.1875 L 18.671875 -33.078125 C 17.304688 -33.078125 15.796875 -32.878906 14.140625 -32.484375 C 12.492188 -32.097656 11.671875 -31.644531 11.671875 -31.125 L 11.671875 0 L 1.953125 0 Z M 1.953125 -40.6875 "/></g></g></g><g fill="#6133bd" fill-opacity="1"><g transform="translate(205.550163, 275.5276)"><g><path d="M 2.109375 -47.75 L 15.28125 -47.75 C 18.695312 -47.75 21.253906 -46.800781 22.953125 -44.90625 C 24.660156 -43.019531 25.535156 -40.226562 25.578125 -36.53125 L 25.6875 -14.171875 C 25.71875 -9.460938 24.898438 -5.921875 23.234375 -3.546875 C 21.566406 -1.179688 18.804688 0 14.953125 0 L 2.109375 0 Z M 13.390625 -8.453125 C 15.140625 -8.453125 16.015625 -9.300781 16.015625 -11 L 16.015625 -35.640625 C 16.015625 -36.710938 15.929688 -37.515625 15.765625 -38.046875 C 15.597656 -38.585938 15.289062 -38.953125 14.84375 -39.140625 C 14.394531 -39.328125 13.707031 -39.421875 12.78125 -39.421875 L 11.734375 -39.421875 L 11.734375 -8.453125 Z M 13.390625 -8.453125 "/></g></g></g><g fill="#6133bd" fill-opacity="1"><g transform="translate(232.952078, 275.5276)"><g><path d="M 13.34375 0.4375 C 9.15625 0.4375 6.148438 -0.707031 4.328125 -3 C 2.515625 -5.300781 1.609375 -8.726562 1.609375 -13.28125 L 1.609375 -29.625 C 1.609375 -33.375 2.679688 -36.226562 4.828125 -38.1875 C 6.984375 -40.15625 9.988281 -41.140625 13.84375 -41.140625 C 21.664062 -41.140625 25.578125 -37.300781 25.578125 -29.625 L 25.578125 -26.6875 C 25.578125 -23.71875 25.539062 -21.304688 25.46875 -19.453125 L 11.34375 -19.453125 L 11.34375 -11.5625 C 11.34375 -10.15625 11.488281 -9.050781 11.78125 -8.25 C 12.082031 -7.457031 12.710938 -7.0625 13.671875 -7.0625 C 14.410156 -7.0625 14.9375 -7.28125 15.25 -7.71875 C 15.570312 -8.164062 15.757812 -8.675781 15.8125 -9.25 C 15.875 -9.832031 15.90625 -10.675781 15.90625 -11.78125 L 15.90625 -15.734375 L 25.578125 -15.734375 L 25.578125 -13.390625 C 25.578125 -8.648438 24.65625 -5.160156 22.8125 -2.921875 C 20.976562 -0.679688 17.820312 0.4375 13.34375 0.4375 Z M 15.90625 -24.296875 L 15.90625 -29.515625 C 15.90625 -32.441406 15.179688 -33.90625 13.734375 -33.90625 C 12.097656 -33.90625 11.28125 -32.441406 11.28125 -29.515625 L 11.28125 -24.296875 Z M 15.90625 -24.296875 "/></g></g></g><g fill="#6133bd" fill-opacity="1"><g transform="translate(260.076084, 275.5276)"><g><path d="M 9.34375 0.4375 C 6.1875 0.4375 4.023438 -0.609375 2.859375 -2.703125 C 1.691406 -4.796875 1.109375 -7.785156 1.109375 -11.671875 C 1.109375 -14.859375 1.523438 -17.304688 2.359375 -19.015625 C 3.191406 -20.722656 4.347656 -21.972656 5.828125 -22.765625 C 7.316406 -23.554688 9.582031 -24.4375 12.625 -25.40625 L 15.28125 -26.296875 L 15.28125 -30.46875 C 15.28125 -31.539062 15.066406 -32.363281 14.640625 -32.9375 C 14.222656 -33.507812 13.71875 -33.796875 13.125 -33.796875 C 12.601562 -33.796875 12.144531 -33.554688 11.75 -33.078125 C 11.363281 -32.597656 11.171875 -31.945312 11.171875 -31.125 L 11.171875 -28.6875 L 1.71875 -28.6875 L 1.71875 -30.015625 C 1.71875 -34.023438 2.65625 -36.878906 4.53125 -38.578125 C 6.40625 -40.285156 9.453125 -41.140625 13.671875 -41.140625 C 17.046875 -41.140625 19.789062 -40.257812 21.90625 -38.5 C 24.019531 -36.738281 25.078125 -34.242188 25.078125 -31.015625 L 25.078125 0 L 15.40625 0 L 15.40625 -4.84375 C 14.914062 -3.164062 14.144531 -1.863281 13.09375 -0.9375 C 12.039062 -0.0195312 10.789062 0.4375 9.34375 0.4375 Z M 13.171875 -7.109375 C 13.910156 -7.109375 14.4375 -7.414062 14.75 -8.03125 C 15.070312 -8.644531 15.234375 -9.394531 15.234375 -10.28125 L 15.234375 -21.625 C 13.785156 -21.070312 12.71875 -20.367188 12.03125 -19.515625 C 11.34375 -18.660156 11 -17.472656 11 -15.953125 L 11 -10.734375 C 11 -8.316406 11.722656 -7.109375 13.171875 -7.109375 Z M 13.171875 -7.109375 "/></g></g></g><g fill="#6133bd" fill-opacity="1"><g transform="translate(286.922182, 275.5276)"><g><path d="M 1.953125 0 L 1.953125 -48.03125 L 11.84375 -48.03125 L 11.84375 0 Z M 1.953125 0 "/></g></g></g><g fill="#6133bd" fill-opacity="1"><g transform="translate(136.770588, 299.313964)"><g><path d="M 1.421875 0 L 1.421875 -9.796875 L 7.375 -9.796875 L 7.375 -8.65625 L 2.65625 -8.65625 L 2.65625 -5.5625 L 7.03125 -5.5625 L 7.03125 -4.421875 L 2.65625 -4.421875 L 2.65625 -1.140625 L 7.53125 -1.140625 L 7.53125 0 Z M 1.421875 0 "/></g></g></g><g fill="#6133bd" fill-opacity="1"><g transform="translate(145.207881, 299.313964)"><g><path d="M 1.421875 0 L 1.421875 -9.796875 L 2.65625 -9.796875 L 2.65625 -1.171875 L 7.421875 -1.171875 L 7.421875 0 Z M 1.421875 0 "/></g></g></g><g fill="#6133bd" fill-opacity="1"><g transform="translate(153.057498, 299.313964)"><g><path d="M 1.421875 0 L 1.421875 -9.796875 L 7.375 -9.796875 L 7.375 -8.65625 L 2.65625 -8.65625 L 2.65625 -5.5625 L 7.03125 -5.5625 L 7.03125 -4.421875 L 2.65625 -4.421875 L 2.65625 -1.140625 L 7.53125 -1.140625 L 7.53125 0 Z M 1.421875 0 "/></g></g></g><g fill="#6133bd" fill-opacity="1"><g transform="translate(161.494791, 299.313964)"><g><path d="M 5.765625 0.1875 C 5.046875 0.1875 4.382812 0.0625 3.78125 -0.1875 C 3.175781 -0.445312 2.648438 -0.800781 2.203125 -1.25 C 1.765625 -1.707031 1.421875 -2.242188 1.171875 -2.859375 C 0.929688 -3.484375 0.8125 -4.164062 0.8125 -4.90625 C 0.8125 -5.632812 0.929688 -6.3125 1.171875 -6.9375 C 1.421875 -7.5625 1.765625 -8.097656 2.203125 -8.546875 C 2.648438 -8.992188 3.175781 -9.34375 3.78125 -9.59375 C 4.382812 -9.851562 5.046875 -9.984375 5.765625 -9.984375 C 6.546875 -9.984375 7.257812 -9.835938 7.90625 -9.546875 C 8.550781 -9.265625 9.101562 -8.859375 9.5625 -8.328125 C 10.03125 -7.804688 10.367188 -7.1875 10.578125 -6.46875 L 9.265625 -6.46875 C 9.015625 -7.175781 8.578125 -7.734375 7.953125 -8.140625 C 7.335938 -8.546875 6.625 -8.75 5.8125 -8.75 C 5.082031 -8.75 4.4375 -8.582031 3.875 -8.25 C 3.3125 -7.925781 2.867188 -7.472656 2.546875 -6.890625 C 2.234375 -6.316406 2.078125 -5.65625 2.078125 -4.90625 C 2.078125 -4.144531 2.234375 -3.472656 2.546875 -2.890625 C 2.867188 -2.316406 3.3125 -1.863281 3.875 -1.53125 C 4.4375 -1.207031 5.082031 -1.046875 5.8125 -1.046875 C 6.644531 -1.046875 7.378906 -1.257812 8.015625 -1.6875 C 8.660156 -2.125 9.109375 -2.707031 9.359375 -3.4375 L 10.671875 -3.4375 C 10.472656 -2.71875 10.132812 -2.085938 9.65625 -1.546875 C 9.1875 -1.003906 8.617188 -0.578125 7.953125 -0.265625 C 7.285156 0.0351562 6.554688 0.1875 5.765625 0.1875 Z M 5.765625 0.1875 "/></g></g></g><g fill="#6133bd" fill-opacity="1"><g transform="translate(172.912423, 299.313964)"><g><path d="M 3.796875 0 L 3.796875 -8.625 L 0.46875 -8.625 L 0.46875 -9.796875 L 8.328125 -9.796875 L 8.328125 -8.625 L 5.03125 -8.625 L 5.03125 0 Z M 3.796875 0 "/></g></g></g><g fill="#6133bd" fill-opacity="1"><g transform="translate(181.727498, 299.313964)"><g><path d="M 1.421875 0 L 1.421875 -9.796875 L 5.171875 -9.796875 C 5.847656 -9.796875 6.4375 -9.664062 6.9375 -9.40625 C 7.445312 -9.15625 7.84375 -8.796875 8.125 -8.328125 C 8.40625 -7.859375 8.546875 -7.300781 8.546875 -6.65625 C 8.546875 -5.851562 8.335938 -5.191406 7.921875 -4.671875 C 7.515625 -4.160156 6.953125 -3.816406 6.234375 -3.640625 L 8.6875 0 L 7.203125 0 L 4.8125 -3.515625 L 2.65625 -3.515625 L 2.65625 0 Z M 2.65625 -4.6875 L 5.03125 -4.6875 C 5.75 -4.6875 6.300781 -4.859375 6.6875 -5.203125 C 7.082031 -5.546875 7.28125 -6.03125 7.28125 -6.65625 C 7.28125 -7.28125 7.082031 -7.765625 6.6875 -8.109375 C 6.300781 -8.453125 5.75 -8.625 5.03125 -8.625 L 2.65625 -8.625 Z M 2.65625 -4.6875 "/></g></g></g><g fill="#6133bd" fill-opacity="1"><g transform="translate(191.25618, 299.313964)"><g><path d="M 5.875 0.1875 C 4.882812 0.1875 4.003906 -0.03125 3.234375 -0.46875 C 2.472656 -0.90625 1.878906 -1.503906 1.453125 -2.265625 C 1.023438 -3.035156 0.8125 -3.914062 0.8125 -4.90625 C 0.8125 -5.894531 1.023438 -6.769531 1.453125 -7.53125 C 1.878906 -8.300781 2.472656 -8.898438 3.234375 -9.328125 C 4.003906 -9.765625 4.882812 -9.984375 5.875 -9.984375 C 6.875 -9.984375 7.753906 -9.765625 8.515625 -9.328125 C 9.273438 -8.898438 9.875 -8.300781 10.3125 -7.53125 C 10.75 -6.769531 10.96875 -5.894531 10.96875 -4.90625 C 10.96875 -3.914062 10.75 -3.035156 10.3125 -2.265625 C 9.875 -1.503906 9.273438 -0.90625 8.515625 -0.46875 C 7.753906 -0.03125 6.875 0.1875 5.875 0.1875 Z M 2.078125 -4.90625 C 2.078125 -4.144531 2.234375 -3.472656 2.546875 -2.890625 C 2.867188 -2.316406 3.316406 -1.863281 3.890625 -1.53125 C 4.472656 -1.207031 5.132812 -1.046875 5.875 -1.046875 C 6.632812 -1.046875 7.296875 -1.207031 7.859375 -1.53125 C 8.429688 -1.863281 8.878906 -2.316406 9.203125 -2.890625 C 9.523438 -3.472656 9.6875 -4.144531 9.6875 -4.90625 C 9.6875 -5.664062 9.523438 -6.332031 9.203125 -6.90625 C 8.878906 -7.476562 8.429688 -7.925781 7.859375 -8.25 C 7.296875 -8.582031 6.632812 -8.75 5.875 -8.75 C 5.132812 -8.75 4.472656 -8.582031 3.890625 -8.25 C 3.316406 -7.925781 2.867188 -7.476562 2.546875 -6.90625 C 2.234375 -6.332031 2.078125 -5.664062 2.078125 -4.90625 Z M 2.078125 -4.90625 "/></g></g></g><g fill="#6133bd" fill-opacity="1"><g transform="translate(203.009616, 299.313964)"><g><path d="M 1.421875 0 L 1.421875 -9.796875 L 2.59375 -9.796875 L 8.015625 -2.125 L 8.015625 -9.796875 L 9.21875 -9.796875 L 9.21875 0 L 8.0625 0 L 2.640625 -7.671875 L 2.640625 0 Z M 1.421875 0 "/></g></g></g><g fill="#6133bd" fill-opacity="1"><g transform="translate(213.643683, 299.313964)"><g><path d="M 1.421875 0 L 1.421875 -9.796875 L 2.65625 -9.796875 L 2.65625 0 Z M 1.421875 0 "/></g></g></g><g fill="#6133bd" fill-opacity="1"><g transform="translate(217.729406, 299.313964)"><g><path d="M 5.765625 0.1875 C 5.046875 0.1875 4.382812 0.0625 3.78125 -0.1875 C 3.175781 -0.445312 2.648438 -0.800781 2.203125 -1.25 C 1.765625 -1.707031 1.421875 -2.242188 1.171875 -2.859375 C 0.929688 -3.484375 0.8125 -4.164062 0.8125 -4.90625 C 0.8125 -5.632812 0.929688 -6.3125 1.171875 -6.9375 C 1.421875 -7.5625 1.765625 -8.097656 2.203125 -8.546875 C 2.648438 -8.992188 3.175781 -9.34375 3.78125 -9.59375 C 4.382812 -9.851562 5.046875 -9.984375 5.765625 -9.984375 C 6.546875 -9.984375 7.257812 -9.835938 7.90625 -9.546875 C 8.550781 -9.265625 9.101562 -8.859375 9.5625 -8.328125 C 10.03125 -7.804688 10.367188 -7.1875 10.578125 -6.46875 L 9.265625 -6.46875 C 9.015625 -7.175781 8.578125 -7.734375 7.953125 -8.140625 C 7.335938 -8.546875 6.625 -8.75 5.8125 -8.75 C 5.082031 -8.75 4.4375 -8.582031 3.875 -8.25 C 3.3125 -7.925781 2.867188 -7.472656 2.546875 -6.890625 C 2.234375 -6.316406 2.078125 -5.65625 2.078125 -4.90625 C 2.078125 -4.144531 2.234375 -3.472656 2.546875 -2.890625 C 2.867188 -2.316406 3.3125 -1.863281 3.875 -1.53125 C 4.4375 -1.207031 5.082031 -1.046875 5.8125 -1.046875 C 6.644531 -1.046875 7.378906 -1.257812 8.015625 -1.6875 C 8.660156 -2.125 9.109375 -2.707031 9.359375 -3.4375 L 10.671875 -3.4375 C 10.472656 -2.71875 10.132812 -2.085938 9.65625 -1.546875 C 9.1875 -1.003906 8.617188 -0.578125 7.953125 -0.265625 C 7.285156 0.0351562 6.554688 0.1875 5.765625 0.1875 Z M 5.765625 0.1875 "/></g></g></g><g fill="#6133bd" fill-opacity="1"><g transform="translate(229.147039, 299.313964)"><g><path d="M 4.6875 0.1875 C 3.90625 0.1875 3.226562 0.0546875 2.65625 -0.203125 C 2.082031 -0.472656 1.640625 -0.847656 1.328125 -1.328125 C 1.015625 -1.816406 0.851562 -2.378906 0.84375 -3.015625 L 2.078125 -3.015625 C 2.085938 -2.390625 2.332031 -1.894531 2.8125 -1.53125 C 3.300781 -1.175781 3.925781 -1 4.6875 -1 C 5.375 -1 5.921875 -1.132812 6.328125 -1.40625 C 6.734375 -1.675781 6.9375 -2.050781 6.9375 -2.53125 C 6.9375 -2.988281 6.738281 -3.351562 6.34375 -3.625 C 5.957031 -3.90625 5.320312 -4.148438 4.4375 -4.359375 C 3.226562 -4.640625 2.34375 -5.003906 1.78125 -5.453125 C 1.226562 -5.910156 0.953125 -6.519531 0.953125 -7.28125 C 0.953125 -8.113281 1.265625 -8.769531 1.890625 -9.25 C 2.523438 -9.738281 3.378906 -9.984375 4.453125 -9.984375 C 5.554688 -9.984375 6.425781 -9.707031 7.0625 -9.15625 C 7.695312 -8.601562 8.019531 -7.851562 8.03125 -6.90625 L 6.8125 -6.90625 C 6.800781 -7.488281 6.582031 -7.953125 6.15625 -8.296875 C 5.738281 -8.640625 5.171875 -8.8125 4.453125 -8.8125 C 3.753906 -8.8125 3.207031 -8.671875 2.8125 -8.390625 C 2.414062 -8.117188 2.21875 -7.75 2.21875 -7.28125 C 2.21875 -6.875 2.398438 -6.535156 2.765625 -6.265625 C 3.128906 -5.992188 3.789062 -5.738281 4.75 -5.5 C 6 -5.195312 6.890625 -4.8125 7.421875 -4.34375 C 7.953125 -3.882812 8.21875 -3.296875 8.21875 -2.578125 C 8.21875 -1.722656 7.894531 -1.046875 7.25 -0.546875 C 6.613281 -0.0546875 5.757812 0.1875 4.6875 0.1875 Z M 4.6875 0.1875 "/></g></g></g></svg>