<svg xmlns="http://www.w3.org/2000/svg" xmlns:xlink="http://www.w3.org/1999/xlink" width="500" zoomAndPan="magnify" viewBox="0 0 375 374.999991" height="500" preserveAspectRatio="xMidYMid meet" version="1.0"><defs><g/></defs><path fill="#6133bd" d="M 46.816406 165.84375 C 48.171875 165.84375 49.269531 164.746094 49.269531 163.394531 L 49.269531 158.644531 C 49.269531 152.503906 54.273438 147.503906 60.433594 147.503906 C 66.59375 147.503906 71.59375 152.503906 71.59375 158.644531 L 71.59375 163.394531 C 71.59375 164.746094 72.695312 165.84375 74.046875 165.84375 C 75.402344 165.84375 76.5 164.746094 76.5 163.394531 L 76.5 159.3125 C 76.5 150.738281 70.066406 143.207031 61.492188 142.636719 C 52.171875 142.03125 44.367188 149.445312 44.367188 158.644531 L 44.367188 163.394531 C 44.367188 164.746094 45.464844 165.84375 46.816406 165.84375 Z M 46.816406 165.84375 " fill-opacity="1" fill-rule="nonzero"/><path fill="#6133bd" d="M 98.390625 229.601562 L 92.996094 177.125 C 92.566406 172.945312 89.054688 169.789062 84.855469 169.789062 L 36.007812 169.789062 C 31.8125 169.789062 28.300781 172.964844 27.867188 177.125 L 26.515625 190.191406 C 25.613281 198.960938 33.949219 205.804688 42.363281 203.234375 L 46.9375 201.84375 C 52.132812 200.253906 57.941406 202.882812 59.980469 208.652344 C 60.6875 210.652344 60.589844 212.847656 59.960938 214.890625 L 57.941406 221.480469 C 55.15625 230.582031 61.960938 239.785156 71.476562 239.785156 L 89.210938 239.785156 C 94.683594 239.765625 98.960938 235.035156 98.390625 229.601562 Z M 98.390625 229.601562 " fill-opacity="1" fill-rule="nonzero"/><path fill="#6133bd" d="M 48.660156 207.453125 L 22.238281 215.515625 C 18.390625 216.695312 18.117188 222.03125 21.824219 223.597656 L 28.121094 226.246094 C 31.457031 227.660156 34.125 230.308594 35.539062 233.664062 L 38.1875 239.960938 C 39.753906 243.667969 45.089844 243.394531 46.269531 239.546875 L 54.332031 213.125 C 55.410156 209.652344 52.152344 206.394531 48.660156 207.453125 Z M 48.660156 207.453125 " fill-opacity="1" fill-rule="nonzero"/><g fill="#ef8121" fill-opacity="0.4"><g transform="translate(124.695246, 212.566871)"><g><path d="M 1.953125 0 L 1.953125 -44.140625 L 15.421875 -44.140625 L 19.125 -17.21875 L 22.8125 -44.140625 L 36.390625 -44.140625 L 36.390625 0 L 28.3125 0 L 28.3125 -31.8125 L 23.234375 0 L 15.3125 0 L 9.921875 -31.8125 L 9.921875 0 Z M 1.953125 0 "/></g></g></g><g fill="#ef8121" fill-opacity="0.4"><g transform="translate(163.032292, 212.566871)"><g><path d="M 8.640625 0.40625 C 5.722656 0.40625 3.722656 -0.554688 2.640625 -2.484375 C 1.566406 -4.421875 1.03125 -7.191406 1.03125 -10.796875 C 1.03125 -13.742188 1.414062 -16.003906 2.1875 -17.578125 C 2.957031 -19.148438 4.023438 -20.304688 5.390625 -21.046875 C 6.765625 -21.785156 8.859375 -22.597656 11.671875 -23.484375 L 14.125 -24.3125 L 14.125 -28.15625 C 14.125 -29.15625 13.925781 -29.921875 13.53125 -30.453125 C 13.144531 -30.984375 12.675781 -31.25 12.125 -31.25 C 11.644531 -31.25 11.222656 -31.023438 10.859375 -30.578125 C 10.503906 -30.128906 10.328125 -29.53125 10.328125 -28.78125 L 10.328125 -26.515625 L 1.59375 -26.515625 L 1.59375 -27.75 C 1.59375 -31.445312 2.457031 -34.082031 4.1875 -35.65625 C 5.914062 -37.238281 8.734375 -38.03125 12.640625 -38.03125 C 15.753906 -38.03125 18.285156 -37.210938 20.234375 -35.578125 C 22.191406 -33.953125 23.171875 -31.648438 23.171875 -28.671875 L 23.171875 0 L 14.234375 0 L 14.234375 -4.46875 C 13.785156 -2.925781 13.070312 -1.726562 12.09375 -0.875 C 11.125 -0.0195312 9.972656 0.40625 8.640625 0.40625 Z M 12.171875 -6.578125 C 12.859375 -6.578125 13.347656 -6.859375 13.640625 -7.421875 C 13.929688 -7.992188 14.078125 -8.6875 14.078125 -9.5 L 14.078125 -19.984375 C 12.742188 -19.472656 11.757812 -18.820312 11.125 -18.03125 C 10.488281 -17.25 10.171875 -16.15625 10.171875 -14.75 L 10.171875 -9.921875 C 10.171875 -7.691406 10.835938 -6.578125 12.171875 -6.578125 Z M 12.171875 -6.578125 "/></g></g></g><g fill="#ef8121" fill-opacity="0.4"><g transform="translate(187.85373, 212.566871)"><g><path d="M 1.796875 0 L 1.796875 -44.40625 L 10.6875 -44.40625 L 10.6875 -24.671875 L 15 -37.625 L 24.3125 -37.625 L 18.65625 -21.28125 L 25.84375 0 L 16.296875 0 L 10.6875 -17.734375 L 10.6875 0 Z M 1.796875 0 "/></g></g></g><g fill="#ef8121" fill-opacity="0.4"><g transform="translate(213.086292, 212.566871)"><g><path d="M 12.328125 0.40625 C 8.460938 0.40625 5.6875 -0.65625 4 -2.78125 C 2.320312 -4.90625 1.484375 -8.070312 1.484375 -12.28125 L 1.484375 -27.390625 C 1.484375 -30.847656 2.476562 -33.484375 4.46875 -35.296875 C 6.457031 -37.117188 9.234375 -38.03125 12.796875 -38.03125 C 20.023438 -38.03125 23.640625 -34.484375 23.640625 -27.390625 L 23.640625 -24.671875 C 23.640625 -21.929688 23.601562 -19.703125 23.53125 -17.984375 L 10.484375 -17.984375 L 10.484375 -10.6875 C 10.484375 -9.382812 10.617188 -8.363281 10.890625 -7.625 C 11.171875 -6.894531 11.753906 -6.53125 12.640625 -6.53125 C 13.328125 -6.53125 13.816406 -6.734375 14.109375 -7.140625 C 14.398438 -7.554688 14.570312 -8.03125 14.625 -8.5625 C 14.675781 -9.09375 14.703125 -9.867188 14.703125 -10.890625 L 14.703125 -14.546875 L 23.640625 -14.546875 L 23.640625 -12.390625 C 23.640625 -8.003906 22.789062 -4.773438 21.09375 -2.703125 C 19.394531 -0.628906 16.472656 0.40625 12.328125 0.40625 Z M 14.703125 -22.453125 L 14.703125 -27.28125 C 14.703125 -29.988281 14.03125 -31.34375 12.6875 -31.34375 C 11.1875 -31.34375 10.4375 -29.988281 10.4375 -27.28125 L 10.4375 -22.453125 Z M 14.703125 -22.453125 "/></g></g></g><g fill="#ef8121" fill-opacity="0.4"><g transform="translate(238.164679, 212.566871)"><g><path d="M 1.796875 -37.625 L 10.796875 -37.625 L 10.796875 -33.453125 C 11.234375 -34.929688 12.007812 -36.070312 13.125 -36.875 C 14.238281 -37.675781 15.617188 -38.078125 17.265625 -38.078125 L 17.265625 -30.578125 C 15.992188 -30.578125 14.597656 -30.394531 13.078125 -30.03125 C 11.554688 -29.675781 10.796875 -29.257812 10.796875 -28.78125 L 10.796875 0 L 1.796875 0 Z M 1.796875 -37.625 "/></g></g></g><g fill="#6133bd" fill-opacity="1"><g transform="translate(124.695246, 212.566871)"><g><path d="M 1.953125 0 L 1.953125 -44.140625 L 15.421875 -44.140625 L 19.125 -17.21875 L 22.8125 -44.140625 L 36.390625 -44.140625 L 36.390625 0 L 28.3125 0 L 28.3125 -31.8125 L 23.234375 0 L 15.3125 0 L 9.921875 -31.8125 L 9.921875 0 Z M 1.953125 0 "/></g></g></g><g fill="#6133bd" fill-opacity="1"><g transform="translate(163.032292, 212.566871)"><g><path d="M 8.640625 0.40625 C 5.722656 0.40625 3.722656 -0.554688 2.640625 -2.484375 C 1.566406 -4.421875 1.03125 -7.191406 1.03125 -10.796875 C 1.03125 -13.742188 1.414062 -16.003906 2.1875 -17.578125 C 2.957031 -19.148438 4.023438 -20.304688 5.390625 -21.046875 C 6.765625 -21.785156 8.859375 -22.597656 11.671875 -23.484375 L 14.125 -24.3125 L 14.125 -28.15625 C 14.125 -29.15625 13.925781 -29.921875 13.53125 -30.453125 C 13.144531 -30.984375 12.675781 -31.25 12.125 -31.25 C 11.644531 -31.25 11.222656 -31.023438 10.859375 -30.578125 C 10.503906 -30.128906 10.328125 -29.53125 10.328125 -28.78125 L 10.328125 -26.515625 L 1.59375 -26.515625 L 1.59375 -27.75 C 1.59375 -31.445312 2.457031 -34.082031 4.1875 -35.65625 C 5.914062 -37.238281 8.734375 -38.03125 12.640625 -38.03125 C 15.753906 -38.03125 18.285156 -37.210938 20.234375 -35.578125 C 22.191406 -33.953125 23.171875 -31.648438 23.171875 -28.671875 L 23.171875 0 L 14.234375 0 L 14.234375 -4.46875 C 13.785156 -2.925781 13.070312 -1.726562 12.09375 -0.875 C 11.125 -0.0195312 9.972656 0.40625 8.640625 0.40625 Z M 12.171875 -6.578125 C 12.859375 -6.578125 13.347656 -6.859375 13.640625 -7.421875 C 13.929688 -7.992188 14.078125 -8.6875 14.078125 -9.5 L 14.078125 -19.984375 C 12.742188 -19.472656 11.757812 -18.820312 11.125 -18.03125 C 10.488281 -17.25 10.171875 -16.15625 10.171875 -14.75 L 10.171875 -9.921875 C 10.171875 -7.691406 10.835938 -6.578125 12.171875 -6.578125 Z M 12.171875 -6.578125 "/></g></g></g><g fill="#6133bd" fill-opacity="1"><g transform="translate(187.85373, 212.566871)"><g><path d="M 1.796875 0 L 1.796875 -44.40625 L 10.6875 -44.40625 L 10.6875 -24.671875 L 15 -37.625 L 24.3125 -37.625 L 18.65625 -21.28125 L 25.84375 0 L 16.296875 0 L 10.6875 -17.734375 L 10.6875 0 Z M 1.796875 0 "/></g></g></g><g fill="#6133bd" fill-opacity="1"><g transform="translate(213.086292, 212.566871)"><g><path d="M 12.328125 0.40625 C 8.460938 0.40625 5.6875 -0.65625 4 -2.78125 C 2.320312 -4.90625 1.484375 -8.070312 1.484375 -12.28125 L 1.484375 -27.390625 C 1.484375 -30.847656 2.476562 -33.484375 4.46875 -35.296875 C 6.457031 -37.117188 9.234375 -38.03125 12.796875 -38.03125 C 20.023438 -38.03125 23.640625 -34.484375 23.640625 -27.390625 L 23.640625 -24.671875 C 23.640625 -21.929688 23.601562 -19.703125 23.53125 -17.984375 L 10.484375 -17.984375 L 10.484375 -10.6875 C 10.484375 -9.382812 10.617188 -8.363281 10.890625 -7.625 C 11.171875 -6.894531 11.753906 -6.53125 12.640625 -6.53125 C 13.328125 -6.53125 13.816406 -6.734375 14.109375 -7.140625 C 14.398438 -7.554688 14.570312 -8.03125 14.625 -8.5625 C 14.675781 -9.09375 14.703125 -9.867188 14.703125 -10.890625 L 14.703125 -14.546875 L 23.640625 -14.546875 L 23.640625 -12.390625 C 23.640625 -8.003906 22.789062 -4.773438 21.09375 -2.703125 C 19.394531 -0.628906 16.472656 0.40625 12.328125 0.40625 Z M 14.703125 -22.453125 L 14.703125 -27.28125 C 14.703125 -29.988281 14.03125 -31.34375 12.6875 -31.34375 C 11.1875 -31.34375 10.4375 -29.988281 10.4375 -27.28125 L 10.4375 -22.453125 Z M 14.703125 -22.453125 "/></g></g></g><g fill="#6133bd" fill-opacity="1"><g transform="translate(238.164679, 212.566871)"><g><path d="M 1.796875 -37.625 L 10.796875 -37.625 L 10.796875 -33.453125 C 11.234375 -34.929688 12.007812 -36.070312 13.125 -36.875 C 14.238281 -37.675781 15.617188 -38.078125 17.265625 -38.078125 L 17.265625 -30.578125 C 15.992188 -30.578125 14.597656 -30.394531 13.078125 -30.03125 C 11.554688 -29.675781 10.796875 -29.257812 10.796875 -28.78125 L 10.796875 0 L 1.796875 0 Z M 1.796875 -37.625 "/></g></g></g><g fill="#6133bd" fill-opacity="1"><g transform="translate(264.393035, 212.566871)"><g><path d="M 1.953125 -44.140625 L 14.125 -44.140625 C 17.28125 -44.140625 19.644531 -43.265625 21.21875 -41.515625 C 22.800781 -39.773438 23.609375 -37.191406 23.640625 -33.765625 L 23.75 -13.109375 C 23.78125 -8.753906 23.023438 -5.476562 21.484375 -3.28125 C 19.941406 -1.09375 17.390625 0 13.828125 0 L 1.953125 0 Z M 12.390625 -7.8125 C 13.992188 -7.8125 14.796875 -8.597656 14.796875 -10.171875 L 14.796875 -32.9375 C 14.796875 -33.9375 14.71875 -34.679688 14.5625 -35.171875 C 14.414062 -35.671875 14.132812 -36.003906 13.71875 -36.171875 C 13.3125 -36.347656 12.675781 -36.4375 11.8125 -36.4375 L 10.84375 -36.4375 L 10.84375 -7.8125 Z M 12.390625 -7.8125 "/></g></g></g><g fill="#6133bd" fill-opacity="1"><g transform="translate(289.728371, 212.566871)"><g><path d="M 12.328125 0.40625 C 8.460938 0.40625 5.6875 -0.65625 4 -2.78125 C 2.320312 -4.90625 1.484375 -8.070312 1.484375 -12.28125 L 1.484375 -27.390625 C 1.484375 -30.847656 2.476562 -33.484375 4.46875 -35.296875 C 6.457031 -37.117188 9.234375 -38.03125 12.796875 -38.03125 C 20.023438 -38.03125 23.640625 -34.484375 23.640625 -27.390625 L 23.640625 -24.671875 C 23.640625 -21.929688 23.601562 -19.703125 23.53125 -17.984375 L 10.484375 -17.984375 L 10.484375 -10.6875 C 10.484375 -9.382812 10.617188 -8.363281 10.890625 -7.625 C 11.171875 -6.894531 11.753906 -6.53125 12.640625 -6.53125 C 13.328125 -6.53125 13.816406 -6.734375 14.109375 -7.140625 C 14.398438 -7.554688 14.570312 -8.03125 14.625 -8.5625 C 14.675781 -9.09375 14.703125 -9.867188 14.703125 -10.890625 L 14.703125 -14.546875 L 23.640625 -14.546875 L 23.640625 -12.390625 C 23.640625 -8.003906 22.789062 -4.773438 21.09375 -2.703125 C 19.394531 -0.628906 16.472656 0.40625 12.328125 0.40625 Z M 14.703125 -22.453125 L 14.703125 -27.28125 C 14.703125 -29.988281 14.03125 -31.34375 12.6875 -31.34375 C 11.1875 -31.34375 10.4375 -29.988281 10.4375 -27.28125 L 10.4375 -22.453125 Z M 14.703125 -22.453125 "/></g></g></g><g fill="#6133bd" fill-opacity="1"><g transform="translate(314.806758, 212.566871)"><g><path d="M 8.640625 0.40625 C 5.722656 0.40625 3.722656 -0.554688 2.640625 -2.484375 C 1.566406 -4.421875 1.03125 -7.191406 1.03125 -10.796875 C 1.03125 -13.742188 1.414062 -16.003906 2.1875 -17.578125 C 2.957031 -19.148438 4.023438 -20.304688 5.390625 -21.046875 C 6.765625 -21.785156 8.859375 -22.597656 11.671875 -23.484375 L 14.125 -24.3125 L 14.125 -28.15625 C 14.125 -29.15625 13.925781 -29.921875 13.53125 -30.453125 C 13.144531 -30.984375 12.675781 -31.25 12.125 -31.25 C 11.644531 -31.25 11.222656 -31.023438 10.859375 -30.578125 C 10.503906 -30.128906 10.328125 -29.53125 10.328125 -28.78125 L 10.328125 -26.515625 L 1.59375 -26.515625 L 1.59375 -27.75 C 1.59375 -31.445312 2.457031 -34.082031 4.1875 -35.65625 C 5.914062 -37.238281 8.734375 -38.03125 12.640625 -38.03125 C 15.753906 -38.03125 18.285156 -37.210938 20.234375 -35.578125 C 22.191406 -33.953125 23.171875 -31.648438 23.171875 -28.671875 L 23.171875 0 L 14.234375 0 L 14.234375 -4.46875 C 13.785156 -2.925781 13.070312 -1.726562 12.09375 -0.875 C 11.125 -0.0195312 9.972656 0.40625 8.640625 0.40625 Z M 12.171875 -6.578125 C 12.859375 -6.578125 13.347656 -6.859375 13.640625 -7.421875 C 13.929688 -7.992188 14.078125 -8.6875 14.078125 -9.5 L 14.078125 -19.984375 C 12.742188 -19.472656 11.757812 -18.820312 11.125 -18.03125 C 10.488281 -17.25 10.171875 -16.15625 10.171875 -14.75 L 10.171875 -9.921875 C 10.171875 -7.691406 10.835938 -6.578125 12.171875 -6.578125 Z M 12.171875 -6.578125 "/></g></g></g><g fill="#6133bd" fill-opacity="1"><g transform="translate(339.628196, 212.566871)"><g><path d="M 1.796875 0 L 1.796875 -44.40625 L 10.953125 -44.40625 L 10.953125 0 Z M 1.796875 0 "/></g></g></g></svg>